<?xml version="1.0" encoding="iso-8859-1"?>
<!-- Generator: Adobe Illustrator 25.4.1, SVG Export Plug-In . SVG Version: 6.00 Build 0)  -->
<svg version="1.1" id="Layer_1" xmlns="http://www.w3.org/2000/svg" xmlns:xlink="http://www.w3.org/1999/xlink" x="0px" y="0px"
	 viewBox="0 0 313 130" style="enable-background:new 0 0 313 130;" xml:space="preserve">
<g>
	<defs>
		<rect id="SVGID_1_" width="313" height="130"/>
	</defs>
	<clipPath id="SVGID_00000005262639841678199090000017029449470159224504_">
		<use xlink:href="#SVGID_1_"  style="overflow:visible;"/>
	</clipPath>
	<path style="clip-path:url(#SVGID_00000005262639841678199090000017029449470159224504_);fill:#002361;" d="M122.86,77.682
		c0-0.768-0.025-2.193-0.234-2.564c-0.088-0.151-0.311-0.237-0.621-0.262l-0.309-0.024c-0.074-0.088-0.051-0.248,0.023-0.298
		c0.473,0.025,0.93,0.037,1.414,0.037c0.52,0,0.854-0.012,1.301-0.037c0.1,0.062,0.086,0.222,0.026,0.298l-0.299,0.024
		c-0.309,0.025-0.545,0.137-0.619,0.299c-0.172,0.408-0.172,1.832-0.172,2.527v1.402c0,1.077-0.174,2.217-0.869,2.959
		c-0.534,0.584-1.452,0.907-2.368,0.907c-0.855,0-1.709-0.163-2.316-0.682c-0.656-0.545-0.967-1.449-0.967-2.924v-2.926
		c0-1.289-0.025-1.5-0.744-1.562l-0.308-0.024c-0.075-0.05-0.051-0.261,0.023-0.298c0.619,0.025,1.041,0.037,1.537,0.037
		c0.508,0,0.918-0.012,1.523-0.037c0.075,0.037,0.1,0.248,0.026,0.298l-0.297,0.024c-0.719,0.062-0.744,0.273-0.744,1.562v2.678
		c0,1.994,0.619,3.307,2.515,3.307c1.797,0,2.479-1.41,2.479-3.295V77.682z"/>
	<path style="clip-path:url(#SVGID_00000005262639841678199090000017029449470159224504_);fill:#002361;" d="M139.054,80.645
		c0,0.371,0,1.846,0.037,2.168c-0.023,0.074-0.098,0.137-0.234,0.137c-0.149-0.211-0.508-0.645-1.586-1.871l-2.875-3.272
		c-0.336-0.385-1.178-1.4-1.438-1.674h-0.025c-0.049,0.149-0.063,0.436-0.063,0.805v2.701c0,0.584,0.014,2.195,0.225,2.567
		c0.074,0.136,0.322,0.21,0.633,0.234l0.383,0.039c0.074,0.098,0.062,0.246-0.026,0.309c-0.556-0.024-0.99-0.038-1.449-0.038
		c-0.521,0-0.855,0.014-1.289,0.038c-0.088-0.063-0.1-0.235-0.025-0.309l0.334-0.039c0.287-0.037,0.484-0.111,0.546-0.248
		c0.174-0.443,0.161-1.957,0.161-2.553v-3.58c0-0.348-0.012-0.607-0.272-0.893c-0.174-0.173-0.473-0.259-0.769-0.296l-0.209-0.026
		c-0.075-0.074-0.075-0.26,0.023-0.31c0.52,0.037,1.178,0.037,1.4,0.037c0.2,0,0.409-0.012,0.571-0.037
		c0.248,0.632,1.711,2.269,2.119,2.726l1.201,1.352c0.856,0.953,1.463,1.648,2.047,2.244h0.023c0.051-0.063,0.051-0.262,0.051-0.522
		v-2.652c0-0.582-0.014-2.193-0.248-2.564c-0.074-0.114-0.273-0.188-0.769-0.248l-0.211-0.026c-0.086-0.074-0.075-0.273,0.025-0.31
		c0.57,0.025,0.992,0.037,1.463,0.037c0.531,0,0.855-0.012,1.275-0.037c0.1,0.062,0.1,0.236,0.026,0.31l-0.174,0.026
		c-0.397,0.06-0.645,0.16-0.694,0.259c-0.21,0.448-0.187,1.983-0.187,2.553V80.645z"/>
	<path style="clip-path:url(#SVGID_00000005262639841678199090000017029449470159224504_);fill:#002361;" d="M148.284,76.455
		c0-1.314-0.025-1.525-0.756-1.586l-0.31-0.025c-0.075-0.051-0.049-0.274,0.025-0.311c0.619,0.026,1.041,0.037,1.562,0.037
		c0.495,0,0.916-0.011,1.536-0.037c0.074,0.037,0.099,0.26,0.025,0.311l-0.309,0.025c-0.732,0.061-0.757,0.272-0.757,1.586v4.412
		c0,1.313,0.025,1.486,0.757,1.572l0.309,0.039c0.074,0.049,0.049,0.272-0.025,0.309c-0.62-0.023-1.041-0.037-1.536-0.037
		c-0.521,0-0.943,0.014-1.562,0.037c-0.074-0.037-0.1-0.234-0.025-0.309l0.31-0.039c0.731-0.086,0.756-0.259,0.756-1.572V76.455z"/>
	<path style="clip-path:url(#SVGID_00000005262639841678199090000017029449470159224504_);fill:#002361;" d="M158.321,75.885
		c-0.285-0.693-0.471-0.955-1.004-1.016l-0.225-0.025c-0.085-0.074-0.074-0.248,0.026-0.311c0.359,0.026,0.756,0.038,1.289,0.038
		c0.545,0,0.978-0.012,1.5-0.038c0.086,0.051,0.111,0.237,0.025,0.311l-0.187,0.025c-0.471,0.061-0.569,0.135-0.582,0.235
		c0.025,0.125,0.234,0.795,0.619,1.736c0.57,1.438,1.141,2.861,1.762,4.275c0.382-0.818,0.904-2.093,1.189-2.751
		c0.358-0.842,0.942-2.243,1.152-2.776c0.1-0.26,0.112-0.396,0.112-0.484c0-0.086-0.125-0.186-0.559-0.235l-0.222-0.025
		c-0.088-0.074-0.063-0.26,0.025-0.311c0.346,0.026,0.818,0.038,1.287,0.038c0.41,0,0.795-0.012,1.203-0.038
		c0.086,0.051,0.086,0.248,0.026,0.311l-0.372,0.025c-0.298,0.024-0.484,0.174-0.646,0.434c-0.346,0.582-0.83,1.588-1.387,2.85
		l-0.67,1.523c-0.496,1.143-1.078,2.578-1.289,3.236c-0.037,0.024-0.086,0.037-0.134,0.037c-0.063,0-0.125-0.013-0.188-0.037
		c-0.137-0.521-0.359-1.127-0.57-1.648L158.321,75.885z"/>
	<path style="clip-path:url(#SVGID_00000005262639841678199090000017029449470159224504_);fill:#002361;" d="M173.239,76.432
		c0-1.291-0.025-1.477-0.756-1.562l-0.199-0.026c-0.074-0.051-0.049-0.273,0.025-0.31c0.534,0.025,0.955,0.037,1.463,0.037h2.33
		c0.793,0,1.524,0,1.672-0.037c0.074,0.211,0.149,1.103,0.199,1.65c-0.05,0.074-0.248,0.098-0.31,0.023
		c-0.186-0.582-0.297-1.015-0.942-1.177c-0.259-0.063-0.656-0.075-1.203-0.075h-0.892c-0.369,0-0.369,0.026-0.369,0.497v2.478
		c0,0.348,0.037,0.348,0.406,0.348h0.721c0.519,0,0.904-0.026,1.052-0.075c0.151-0.05,0.237-0.125,0.299-0.435l0.1-0.508
		c0.06-0.074,0.269-0.074,0.32,0.012c0,0.299-0.051,0.783-0.051,1.254c0,0.445,0.051,0.918,0.051,1.187
		c-0.051,0.088-0.26,0.088-0.32,0.014l-0.114-0.482c-0.048-0.223-0.134-0.409-0.382-0.471c-0.174-0.051-0.473-0.063-0.955-0.063
		h-0.721c-0.369,0-0.406,0.012-0.406,0.336v1.746c0,0.657,0.037,1.078,0.232,1.287c0.15,0.149,0.41,0.286,1.502,0.286
		c0.955,0,1.312-0.049,1.586-0.186c0.223-0.123,0.557-0.557,0.879-1.201c0.088-0.063,0.262-0.026,0.31,0.088
		c-0.086,0.433-0.396,1.386-0.558,1.72c-1.115-0.023-2.217-0.037-3.321-0.037h-1.115c-0.533,0-0.955,0.014-1.687,0.037
		c-0.075-0.037-0.098-0.234-0.024-0.308l0.408-0.039c0.708-0.061,0.77-0.248,0.77-1.547V76.432z"/>
	<path style="clip-path:url(#SVGID_00000005262639841678199090000017029449470159224504_);fill:#002361;" d="M186.668,76.444
		c0-1.178-0.037-1.389-0.544-1.452l-0.397-0.048c-0.086-0.063-0.086-0.262,0.014-0.311c0.691-0.063,1.549-0.1,2.761-0.1
		c0.77,0,1.5,0.063,2.071,0.373c0.594,0.309,1.027,0.868,1.027,1.737c0,1.176-0.928,1.82-1.547,2.068
		c-0.062,0.074,0,0.199,0.061,0.299c0.99,1.598,1.648,2.59,2.492,3.295c0.211,0.185,0.521,0.322,0.855,0.346
		c0.063,0.025,0.073,0.125,0.012,0.173c-0.111,0.037-0.31,0.063-0.545,0.063c-1.054,0-1.687-0.311-2.564-1.561
		c-0.324-0.459-0.832-1.314-1.217-1.871c-0.186-0.273-0.385-0.396-0.879-0.396c-0.558,0-0.582,0.011-0.582,0.273v1.561
		c0,1.299,0.024,1.449,0.744,1.547l0.258,0.039c0.074,0.06,0.051,0.271-0.023,0.308c-0.557-0.023-0.979-0.037-1.475-0.037
		c-0.522,0-0.969,0.014-1.549,0.037c-0.074-0.037-0.099-0.222-0.025-0.308l0.308-0.039c0.719-0.086,0.744-0.248,0.744-1.547V76.444z
		 M187.686,78.215c0,0.223,0,0.359,0.037,0.41c0.037,0.037,0.223,0.061,0.854,0.061c0.447,0,0.918-0.049,1.277-0.323
		c0.334-0.259,0.619-0.693,0.619-1.535c0-0.98-0.605-1.91-1.984-1.91c-0.766,0-0.803,0.049-0.803,0.397V78.215z"/>
	<path style="clip-path:url(#SVGID_00000005262639841678199090000017029449470159224504_);fill:#002361;" d="M201.645,82.949
		c-1.039,0-1.697-0.322-1.934-0.459c-0.148-0.273-0.308-1.152-0.334-1.734c0.063-0.088,0.249-0.112,0.299-0.037
		c0.186,0.632,0.694,1.845,2.131,1.845c1.041,0,1.551-0.679,1.551-1.424c0-0.546-0.113-1.154-1.018-1.734l-1.175-0.769
		c-0.622-0.411-1.34-1.116-1.34-2.131c0-1.178,0.918-2.133,2.527-2.133c0.385,0,0.83,0.074,1.154,0.16
		c0.161,0.051,0.332,0.074,0.432,0.074c0.111,0.299,0.223,0.992,0.223,1.514c-0.049,0.074-0.248,0.111-0.309,0.037
		c-0.16-0.596-0.494-1.402-1.685-1.402c-1.213,0-1.475,0.806-1.475,1.377c0,0.72,0.594,1.238,1.053,1.523l0.992,0.621
		c0.781,0.483,1.549,1.201,1.549,2.379C204.286,82.019,203.258,82.949,201.645,82.949"/>
	<path style="clip-path:url(#SVGID_00000005262639841678199090000017029449470159224504_);fill:#002361;" d="M212.71,76.455
		c0-1.314-0.024-1.525-0.756-1.586l-0.31-0.025c-0.075-0.051-0.049-0.274,0.025-0.311c0.621,0.026,1.041,0.037,1.562,0.037
		c0.496,0,0.916-0.011,1.538-0.037c0.074,0.037,0.099,0.26,0.023,0.311l-0.311,0.025c-0.728,0.061-0.754,0.272-0.754,1.586v4.412
		c0,1.313,0.026,1.486,0.754,1.572l0.311,0.039c0.076,0.049,0.051,0.272-0.023,0.309c-0.622-0.023-1.042-0.037-1.538-0.037
		c-0.521,0-0.941,0.014-1.562,0.037c-0.074-0.037-0.1-0.234-0.025-0.309l0.31-0.039c0.732-0.086,0.756-0.259,0.756-1.572V76.455z"/>
	<path style="clip-path:url(#SVGID_00000005262639841678199090000017029449470159224504_);fill:#002361;" d="M226.47,80.893
		c0,1.299,0.023,1.486,0.74,1.547l0.399,0.039c0.074,0.049,0.048,0.271-0.026,0.309c-0.707-0.024-1.127-0.038-1.623-0.038
		s-0.929,0.014-1.724,0.038c-0.075-0.038-0.098-0.249,0-0.309l0.447-0.039c0.707-0.061,0.769-0.248,0.769-1.547v-5.541
		c0-0.385,0-0.396-0.373-0.396h-0.681c-0.532,0-1.213,0.025-1.524,0.31c-0.297,0.273-0.422,0.545-0.558,0.856
		c-0.098,0.074-0.274,0.011-0.323-0.086c0.2-0.559,0.385-1.354,0.471-1.848c0.039-0.024,0.199-0.037,0.236,0
		c0.075,0.396,0.485,0.383,1.055,0.383h5.02c0.668,0,0.779-0.024,0.965-0.346c0.062-0.023,0.199-0.012,0.222,0.037
		c-0.137,0.508-0.222,1.512-0.185,1.885c-0.049,0.098-0.26,0.098-0.323,0.023c-0.037-0.308-0.125-0.767-0.308-0.904
		c-0.285-0.211-0.756-0.31-1.44-0.31h-0.879c-0.371,0-0.357,0.011-0.357,0.421V80.893z"/>
	<path style="clip-path:url(#SVGID_00000005262639841678199090000017029449470159224504_);fill:#002361;" d="M240.593,80.867
		c0,1.324,0.074,1.523,0.744,1.572l0.473,0.039c0.072,0.075,0.049,0.272-0.026,0.309c-0.769-0.024-1.191-0.037-1.687-0.037
		c-0.522,0-0.965,0.013-1.623,0.037c-0.074-0.037-0.1-0.234-0.026-0.309l0.387-0.039c0.717-0.074,0.74-0.248,0.74-1.572v-0.633
		c0-0.681-0.037-0.842-0.394-1.535l-1.463-2.852c-0.422-0.818-0.607-0.88-0.979-0.941l-0.347-0.062
		c-0.074-0.088-0.061-0.26,0.025-0.311c0.395,0.025,0.842,0.037,1.438,0.037c0.57,0,1.015-0.012,1.326-0.037
		c0.111,0.037,0.111,0.236,0.037,0.311l-0.16,0.025c-0.434,0.061-0.522,0.123-0.522,0.223c0,0.123,0.323,0.83,0.385,0.955
		c0.457,0.916,0.916,1.894,1.401,2.752c0.382-0.659,0.792-1.377,1.164-2.096c0.347-0.645,0.804-1.488,0.804-1.637
		c0-0.074-0.222-0.16-0.519-0.197l-0.223-0.025c-0.086-0.088-0.074-0.26,0.025-0.311c0.444,0.025,0.805,0.037,1.188,0.037
		c0.385,0,0.732-0.012,1.154-0.037c0.1,0.063,0.112,0.236,0.026,0.311l-0.348,0.062c-0.645,0.111-1.018,0.893-1.637,1.959
		l-0.779,1.35c-0.547,0.943-0.584,1.054-0.584,2.007V80.867z"/>
</g>
<g>
	<defs>
		<rect id="SVGID_00000167358563025513711680000010141156947731474359_" x="42.875" y="43.003" width="40.251" height="43.367"/>
	</defs>
	<clipPath id="SVGID_00000074423147651079209500000005832909095073460098_">
		<use xlink:href="#SVGID_00000167358563025513711680000010141156947731474359_"  style="overflow:visible;"/>
	</clipPath>
	<path style="clip-path:url(#SVGID_00000074423147651079209500000005832909095073460098_);fill:#002361;" d="M63.878,86.022
		c1.061-0.586,2.34-1.393,3.725-2.438V71.051l-3.725-2.478V86.022z"/>
	<path style="clip-path:url(#SVGID_00000074423147651079209500000005832909095073460098_);fill:#002361;" d="M63.878,59.896
		l3.725,2.48v-6.333c-1.24-0.058-2.482-0.091-3.725-0.101V59.896z"/>
	<path style="clip-path:url(#SVGID_00000074423147651079209500000005832909095073460098_);fill:#002361;" d="M75.056,56.701
		c-1.238-0.159-2.48-0.288-3.727-0.397v8.551l3.727,2.481V56.701z"/>
	<path style="clip-path:url(#SVGID_00000074423147651079209500000005832909095073460098_);fill:#002361;" d="M71.329,73.532v6.816
		c1.253-1.246,2.515-2.687,3.727-4.326v-0.011L71.329,73.532z"/>
	<path style="clip-path:url(#SVGID_00000074423147651079209500000005832909095073460098_);fill:#002361;" d="M75.056,76.022
		c0.002-0.002,0.003-0.004,0.005-0.01l-0.005-0.002V76.022z"/>
	<path style="clip-path:url(#SVGID_00000074423147651079209500000005832909095073460098_);fill:#002361;" d="M78.778,57.263v12.552
		l0.011,0.006c1.625-3.366,2.936-7.294,3.674-11.862l-0.127-0.025C81.158,57.687,79.97,57.466,78.778,57.263"/>
	<polygon style="clip-path:url(#SVGID_00000074423147651079209500000005832909095073460098_);fill:#002361;" points="67.605,62.378 
		67.605,71.053 71.33,73.531 71.33,64.856 	"/>
	<path style="clip-path:url(#SVGID_00000074423147651079209500000005832909095073460098_);fill:#002361;" d="M75.056,67.336v8.674
		l0.005,0.002c1.332-1.801,2.598-3.854,3.717-6.172v-0.025L75.056,67.336z"/>
	<path style="clip-path:url(#SVGID_00000074423147651079209500000005832909095073460098_);fill:#002361;" d="M78.778,69.84
		c0.005-0.006,0.008-0.014,0.011-0.02l-0.011-0.005V69.84z"/>
	<path style="clip-path:url(#SVGID_00000074423147651079209500000005832909095073460098_);fill:#002361;" d="M55.704,71.618
		c1.1-0.305,2.067-0.918,2.807-1.746c-0.406-0.147-0.88-0.293-1.428-0.414C56.678,70.357,56.168,71.077,55.704,71.618"/>
	<path style="clip-path:url(#SVGID_00000074423147651079209500000005832909095073460098_);fill:#002361;" d="M49.793,69.873
		c0.74,0.828,1.71,1.443,2.811,1.746c-0.464-0.543-0.975-1.262-1.381-2.164C50.674,69.578,50.2,69.725,49.793,69.873"/>
	<path style="clip-path:url(#SVGID_00000074423147651079209500000005832909095073460098_);fill:#002361;" d="M53.612,60.837
		c-0.405,0.445-0.879,1.072-1.274,1.864c0.399,0.053,0.823,0.09,1.274,0.106V60.837z"/>
	<path style="clip-path:url(#SVGID_00000074423147651079209500000005832909095073460098_);fill:#002361;" d="M57.459,68.442
		c0.672,0.158,1.245,0.346,1.712,0.531c0.438-0.732,0.724-1.56,0.806-2.453h-2.173C57.76,67.215,57.637,67.858,57.459,68.442"/>
	<path style="clip-path:url(#SVGID_00000074423147651079209500000005832909095073460098_);fill:#002361;" d="M52.604,60.346
		c-1.101,0.303-2.07,0.919-2.811,1.747c0.408,0.147,0.881,0.293,1.43,0.415C51.629,61.608,52.14,60.888,52.604,60.346"/>
	<path style="clip-path:url(#SVGID_00000074423147651079209500000005832909095073460098_);fill:#002361;" d="M58.511,62.093
		c-0.739-0.827-1.707-1.442-2.807-1.745c0.464,0.542,0.976,1.262,1.38,2.16C57.632,62.386,58.106,62.239,58.511,62.093"/>
	<path style="clip-path:url(#SVGID_00000074423147651079209500000005832909095073460098_);fill:#002361;" d="M57.804,65.446h2.173
		c-0.082-0.892-0.367-1.722-0.806-2.453c-0.467,0.184-1.039,0.372-1.712,0.53C57.637,64.108,57.76,64.75,57.804,65.446"/>
	<path style="clip-path:url(#SVGID_00000074423147651079209500000005832909095073460098_);fill:#002361;" d="M54.688,71.133
		c0.406-0.445,0.885-1.072,1.282-1.869c-0.401-0.053-0.829-0.09-1.282-0.108V71.133z"/>
	<path style="clip-path:url(#SVGID_00000074423147651079209500000005832909095073460098_);fill:#002361;" d="M53.612,66.52h-2.033
		c0.047,0.623,0.169,1.195,0.34,1.717c0.52-0.08,1.085-0.133,1.693-0.155V66.52z"/>
	<path style="clip-path:url(#SVGID_00000074423147651079209500000005832909095073460098_);fill:#002361;" d="M54.688,68.082
		c0.61,0.021,1.179,0.074,1.701,0.154c0.17-0.521,0.293-1.093,0.339-1.716h-2.04V68.082z"/>
	<path style="clip-path:url(#SVGID_00000074423147651079209500000005832909095073460098_);fill:#002361;" d="M55.974,62.701
		c-0.397-0.801-0.878-1.432-1.286-1.875v1.98C55.143,62.791,55.573,62.754,55.974,62.701"/>
	<path style="clip-path:url(#SVGID_00000074423147651079209500000005832909095073460098_);fill:#002361;" d="M56.728,65.446
		c-0.046-0.624-0.167-1.197-0.337-1.718c-0.523,0.079-1.092,0.134-1.703,0.156v1.562H56.728z"/>
	<path style="clip-path:url(#SVGID_00000074423147651079209500000005832909095073460098_);fill:#002361;" d="M52.338,69.264
		c0.396,0.789,0.869,1.416,1.274,1.863v-1.97C53.161,69.176,52.737,69.211,52.338,69.264"/>
	<path style="clip-path:url(#SVGID_00000074423147651079209500000005832909095073460098_);fill:#002361;" d="M50.848,63.523
		c-0.675-0.158-1.247-0.346-1.717-0.53c-0.435,0.731-0.721,1.561-0.804,2.453h2.176C50.547,64.75,50.67,64.108,50.848,63.523"/>
	<path style="clip-path:url(#SVGID_00000074423147651079209500000005832909095073460098_);fill:#002361;" d="M53.612,63.883
		c-0.608-0.021-1.173-0.076-1.693-0.155c-0.171,0.521-0.293,1.093-0.34,1.717h2.033V63.883z"/>
	<path style="clip-path:url(#SVGID_00000074423147651079209500000005832909095073460098_);fill:#002361;" d="M50.503,66.52h-2.176
		c0.083,0.893,0.368,1.721,0.804,2.453c0.47-0.185,1.042-0.373,1.717-0.533C50.67,67.858,50.547,67.215,50.503,66.52"/>
	<path style="clip-path:url(#SVGID_00000074423147651079209500000005832909095073460098_);fill:#002361;" d="M43.537,57.966
		c2.735,16.902,13.316,25.15,18.586,28.056v-30.08C55.895,56,49.688,56.667,43.667,57.938L43.537,57.966z M54.151,59.056
		c3.82,0,6.928,3.107,6.928,6.927c0,3.816-3.108,6.926-6.928,6.926c-3.819,0-6.926-3.11-6.926-6.926
		C47.224,62.163,50.332,59.056,54.151,59.056"/>
	<path style="clip-path:url(#SVGID_00000074423147651079209500000005832909095073460098_);fill:#002361;" d="M82.323,45.045
		l-0.014-0.007C76.08,43.709,69.622,43.003,63,43.003c-6.632,0-13.098,0.708-19.332,2.042l-0.027,0.007
		c-0.44,0.109-0.766,0.506-0.766,0.981l0.002,3.494c0,2.295,0.139,4.461,0.39,6.515c6.474-1.37,13.113-2.054,19.751-2.054
		c6.63,0,13.259,0.684,19.718,2.048c0.248-2.05,0.388-4.216,0.388-6.509l0.001-3.494C83.125,45.546,82.781,45.139,82.323,45.045
		 M77.971,53.692c-4.845-0.92-10.411-1.202-14.969-1.202h-0.004c-4.558,0-10.125,0.282-14.968,1.202
		c-0.183,0.037-0.345-0.13-0.244-0.324l3.187-7.036c0.032-0.065,2.091-1.084,2.091-1.084c2.617-0.55,6.925-0.308,9.931,0.798h0.011
		c3.006-1.106,7.313-1.348,9.93-0.798c0,0,2.058,1.019,2.091,1.084l3.185,7.036C78.315,53.562,78.154,53.729,77.971,53.692"/>
	<path style="clip-path:url(#SVGID_00000074423147651079209500000005832909095073460098_);fill:#002361;" d="M72.107,46.455
		l1.34,3.588c-3.122-0.429-5.709-0.234-9.528,1.017v0.336c3.609-0.136,8.173-0.337,11.863,0.456l-2.011-4.625L72.107,46.455z"/>
	<path style="clip-path:url(#SVGID_00000074423147651079209500000005832909095073460098_);fill:#002361;" d="M52.511,50.043
		l1.34-3.588l-1.663,0.773l-2.011,4.625c3.688-0.794,8.253-0.593,11.861-0.456v-0.336C58.22,49.809,55.632,49.614,52.511,50.043"/>
</g>
<g>
	<defs>
		<rect id="SVGID_00000024715316713754554770000013908468400899954348_" x="89.875" y="47.917" width="180" height="24.58"/>
	</defs>
	<clipPath id="SVGID_00000071531557944731715010000009431726084125829788_">
		<use xlink:href="#SVGID_00000024715316713754554770000013908468400899954348_"  style="overflow:visible;"/>
	</clipPath>
	<path style="clip-path:url(#SVGID_00000071531557944731715010000009431726084125829788_);fill:#002361;" d="M95.023,52.328
		c0-3.159-0.283-3.5-1.963-3.643l-0.71-0.056c-0.171-0.114-0.114-0.626,0.057-0.711c1.649,0.056,2.616,0.085,3.811,0.085
		c1.139,0,2.106-0.029,3.243-0.085c0.171,0.085,0.229,0.597,0.058,0.711l-0.427,0.056c-1.678,0.229-1.735,0.625-1.735,3.643v10.555
		c0,2.246-0.115,4.209-0.654,5.517c-0.94,2.278-2.959,4.098-5.606,4.098c-0.34,0-1.222-0.029-1.222-0.598
		c0-0.484,0.425-1.31,1.023-1.31c0.342,0,0.684,0.056,1.054,0.172c0.398,0.113,0.796,0.199,1.194,0.199
		c0.598,0,0.94-0.342,1.139-0.74c0.654-1.338,0.738-5.604,0.738-7.141V52.328z"/>
	<path style="clip-path:url(#SVGID_00000071531557944731715010000009431726084125829788_);fill:#002361;" d="M99.459,59.027
		c0-4.799,3.601-8.472,8.544-8.472c5.544,0,8.328,4.008,8.328,8.232c0,4.848-3.695,8.375-8.328,8.375
		C102.675,67.162,99.459,63.347,99.459,59.027 M113.931,59.531c0-3.959-1.752-8.232-6.336-8.232c-2.496,0-5.735,1.705-5.735,6.961
		c0,3.55,1.727,8.16,6.456,8.16C111.196,66.42,113.931,64.26,113.931,59.531"/>
	<path style="clip-path:url(#SVGID_00000071531557944731715010000009431726084125829788_);fill:#002361;" d="M121.783,59.027
		c-1.151,0-1.2,0.049-1.2,0.77v3.382c0,2.52,0.12,2.856,1.463,3l0.697,0.073c0.144,0.095,0.096,0.527-0.048,0.599
		c-1.296-0.049-2.112-0.072-3.049-0.072c-1.031,0-1.848,0.049-2.784,0.072c-0.143-0.072-0.191-0.457-0.047-0.599l0.408-0.073
		c1.343-0.24,1.392-0.48,1.392-3v-8.64c0-2.52-0.168-2.927-1.416-3.024l-0.624-0.048c-0.145-0.096-0.096-0.528,0.047-0.6
		c1.176,0.023,1.993,0.072,3.024,0.072c0.937,0,1.753-0.023,2.784-0.072c0.145,0.072,0.194,0.504,0.048,0.6l-0.456,0.048
		c-1.39,0.144-1.439,0.504-1.439,3.024V57.3c0,0.743,0.049,0.768,1.2,0.768h6.864c1.152,0,1.199-0.025,1.199-0.768v-2.761
		c0-2.52-0.047-2.88-1.463-3.024l-0.456-0.048c-0.144-0.096-0.096-0.528,0.048-0.6c1.104,0.049,1.919,0.072,2.903,0.072
		c0.937,0,1.753-0.023,2.833-0.072c0.143,0.072,0.192,0.504,0.048,0.6l-0.504,0.048c-1.392,0.144-1.44,0.504-1.44,3.024v8.64
		c0,2.52,0.048,2.832,1.44,3l0.576,0.073c0.143,0.095,0.096,0.527-0.049,0.599c-1.151-0.049-1.967-0.072-2.904-0.072
		c-0.984,0-1.847,0.023-2.903,0.072c-0.144-0.072-0.192-0.457-0.048-0.599l0.456-0.073c1.463-0.24,1.463-0.48,1.463-3v-3.382
		c0-0.721-0.047-0.77-1.199-0.77H121.783z"/>
	<path style="clip-path:url(#SVGID_00000071531557944731715010000009431726084125829788_);fill:#002361;" d="M150.224,62.699
		c0,0.721,0,3.576,0.072,4.199c-0.047,0.145-0.191,0.264-0.455,0.264c-0.289-0.406-0.984-1.246-3.072-3.623l-5.568-6.336
		c-0.649-0.744-2.28-2.712-2.784-3.238h-0.048c-0.096,0.287-0.12,0.838-0.12,1.558v5.233c0,1.127,0.024,4.248,0.432,4.966
		c0.145,0.266,0.624,0.409,1.224,0.457l0.743,0.073c0.145,0.191,0.121,0.48-0.047,0.599c-1.08-0.048-1.92-0.072-2.808-0.072
		c-1.008,0-1.657,0.024-2.497,0.072c-0.167-0.119-0.191-0.457-0.047-0.599l0.648-0.073c0.552-0.072,0.936-0.216,1.056-0.48
		c0.335-0.863,0.312-3.791,0.312-4.943V53.82c0-0.673-0.023-1.178-0.528-1.728c-0.336-0.336-0.911-0.505-1.488-0.577l-0.409-0.047
		c-0.143-0.144-0.143-0.503,0.049-0.601c1.008,0.072,2.28,0.072,2.712,0.072c0.384,0,0.792-0.023,1.103-0.072
		c0.481,1.225,3.313,4.393,4.105,5.281l2.327,2.615c1.656,1.848,2.832,3.192,3.961,4.344h0.047c0.097-0.119,0.097-0.504,0.097-1.008
		v-5.136c0-1.128-0.025-4.247-0.48-4.968c-0.144-0.216-0.529-0.36-1.488-0.48l-0.408-0.047c-0.168-0.144-0.145-0.529,0.047-0.601
		c1.105,0.049,1.921,0.072,2.833,0.072c1.032,0,1.655-0.023,2.471-0.072c0.192,0.121,0.192,0.457,0.049,0.601l-0.336,0.047
		c-0.768,0.12-1.249,0.313-1.345,0.504c-0.407,0.864-0.36,3.84-0.36,4.944V62.699z"/>
	<path style="clip-path:url(#SVGID_00000071531557944731715010000009431726084125829788_);fill:#002361;" d="M156.567,67.162
		c-2.016,0-3.287-0.623-3.744-0.887c-0.287-0.529-0.6-2.232-0.649-3.359c0.122-0.17,0.481-0.217,0.577-0.072
		c0.36,1.222,1.343,3.576,4.128,3.576c2.016,0,3.001-1.321,3.001-2.76c0-1.057-0.216-2.232-1.969-3.361l-2.28-1.489
		c-1.199-0.791-2.591-2.16-2.591-4.127c0-2.28,1.775-4.127,4.895-4.127c0.744,0,1.609,0.144,2.233,0.311
		c0.311,0.098,0.647,0.145,0.838,0.145c0.216,0.575,0.433,1.92,0.433,2.927c-0.096,0.145-0.48,0.216-0.601,0.073
		c-0.311-1.153-0.958-2.713-3.263-2.713c-2.352,0-2.856,1.56-2.856,2.666c0,1.39,1.153,2.398,2.04,2.951l1.92,1.199
		c1.513,0.936,3,2.328,3,4.608C161.679,65.363,159.687,67.162,156.567,67.162"/>
	<path style="clip-path:url(#SVGID_00000071531557944731715010000009431726084125829788_);fill:#002361;" d="M175.924,57.591
		c-1.365,0-1.422,0.055-1.422,0.908v4.012c0,2.986,0.142,3.385,1.735,3.557l0.826,0.086c0.17,0.113,0.114,0.625-0.058,0.708
		c-1.536-0.056-2.503-0.083-3.612-0.083c-1.224,0-2.192,0.056-3.301,0.083c-0.171-0.083-0.228-0.539-0.057-0.708l0.484-0.086
		c1.592-0.286,1.65-0.571,1.65-3.557V52.269c0-2.987-0.199-3.471-1.678-3.584l-0.74-0.057c-0.171-0.113-0.114-0.626,0.057-0.711
		c1.393,0.028,2.361,0.085,3.585,0.085c1.109,0,2.076-0.028,3.3-0.085c0.17,0.085,0.227,0.598,0.055,0.711l-0.54,0.057
		c-1.649,0.172-1.706,0.597-1.706,3.584v3.272c0,0.882,0.057,0.909,1.422,0.909h8.137c1.365,0,1.422-0.027,1.422-0.909v-3.272
		c0-2.987-0.057-3.412-1.736-3.584l-0.541-0.057c-0.17-0.113-0.113-0.626,0.058-0.711c1.307,0.057,2.276,0.085,3.442,0.085
		c1.11,0,2.077-0.028,3.358-0.085c0.17,0.085,0.227,0.598,0.055,0.711l-0.596,0.057c-1.65,0.172-1.707,0.597-1.707,3.584v10.242
		c0,2.986,0.057,3.357,1.707,3.557l0.682,0.086c0.171,0.113,0.115,0.625-0.057,0.708c-1.365-0.056-2.332-0.083-3.442-0.083
		c-1.166,0-2.19,0.027-3.442,0.083c-0.171-0.083-0.228-0.539-0.058-0.708l0.541-0.086c1.736-0.286,1.736-0.571,1.736-3.557v-4.012
		c0-0.853-0.057-0.908-1.422-0.908H175.924z"/>
	<path style="clip-path:url(#SVGID_00000071531557944731715010000009431726084125829788_);fill:#002361;" d="M190.025,59.027
		c0-4.799,3.602-8.472,8.544-8.472c5.545,0,8.328,4.008,8.328,8.232c0,4.848-3.695,8.375-8.328,8.375
		C193.242,67.162,190.025,63.347,190.025,59.027 M204.497,59.531c0-3.959-1.751-8.232-6.336-8.232c-2.495,0-5.735,1.705-5.735,6.961
		c0,3.55,1.728,8.16,6.456,8.16C201.763,66.42,204.497,64.26,204.497,59.531"/>
	<path style="clip-path:url(#SVGID_00000071531557944731715010000009431726084125829788_);fill:#002361;" d="M211.241,63.179
		c0,2.52,0.048,2.832,1.584,3l0.648,0.072c0.144,0.119,0.097,0.528-0.048,0.6c-1.368-0.049-2.16-0.072-3.12-0.072
		c-1.008,0-1.872,0.023-2.927,0.072c-0.145-0.072-0.193-0.457-0.048-0.6l0.504-0.072c1.391-0.191,1.439-0.48,1.439-3v-8.855
		c0-2.041-0.048-2.449-1.128-2.569l-0.864-0.097c-0.168-0.143-0.144-0.503,0.049-0.599c1.271-0.169,2.76-0.193,4.751-0.193
		c1.992,0,3.48,0.264,4.608,0.961c1.104,0.696,1.92,1.944,1.92,3.599c0,2.208-1.367,3.314-2.4,3.817
		c-1.056,0.504-2.327,0.719-3.312,0.719c-0.168-0.07-0.168-0.431-0.024-0.478c2.592-0.481,3.528-1.946,3.528-4.033
		c0-2.329-1.368-3.839-3.863-3.839c-1.273,0-1.297,0.094-1.297,0.864V63.179z"/>
	<path style="clip-path:url(#SVGID_00000071531557944731715010000009431726084125829788_);fill:#002361;" d="M221.227,54.539
		c0-2.52-0.049-2.904-1.44-3.023l-0.601-0.048c-0.144-0.097-0.095-0.529,0.048-0.601c1.176,0.049,1.944,0.072,3.023,0.072
		c0.937,0,1.753-0.023,2.785-0.072c0.144,0.072,0.193,0.504,0.047,0.601l-0.455,0.048c-1.392,0.143-1.44,0.503-1.44,3.023v2.762
		c0,0.455,0.048,0.91,0.313,0.91c0.215,0,0.503-0.143,0.671-0.264c0.336-0.287,0.96-0.912,1.225-1.152l2.591-2.567
		c0.456-0.433,1.632-1.657,1.872-1.992c0.121-0.169,0.169-0.289,0.169-0.385c0-0.095-0.096-0.167-0.409-0.239l-0.648-0.144
		c-0.168-0.169-0.144-0.48,0.048-0.601c0.84,0.049,1.8,0.072,2.64,0.072s1.656-0.023,2.375-0.072
		c0.169,0.121,0.193,0.457,0.049,0.601c-0.624,0.048-1.559,0.288-2.231,0.672c-0.672,0.383-2.018,1.511-3.361,2.784l-2.16,2.039
		c-0.336,0.338-0.552,0.553-0.552,0.744c0,0.17,0.144,0.361,0.456,0.744c2.28,2.615,4.128,4.776,6.001,6.744
		c0.576,0.576,1.012,0.889,1.828,0.985l0.463,0.072c0.169,0.119,0.12,0.527-0.049,0.6c-0.624-0.049-1.282-0.073-2.41-0.073
		c-0.984,0-1.826,0.024-2.929,0.073c-0.168-0.049-0.239-0.458-0.096-0.6l0.552-0.098c0.337-0.047,0.576-0.119,0.576-0.238
		c0-0.145-0.168-0.336-0.337-0.553c-0.456-0.576-1.079-1.224-1.991-2.256l-1.92-2.16c-1.368-1.535-1.752-2.015-2.328-2.015
		c-0.36,0-0.408,0.312-0.408,1.152v3.096c0,2.519,0.048,2.855,1.392,3l0.649,0.072c0.142,0.096,0.096,0.527-0.049,0.6
		c-1.176-0.049-1.992-0.073-2.929-0.073c-0.983,0-1.799,0.024-2.783,0.073c-0.143-0.073-0.192-0.432-0.048-0.6l0.481-0.072
		c1.271-0.192,1.32-0.481,1.32-3V54.539z"/>
	<path style="clip-path:url(#SVGID_00000071531557944731715010000009431726084125829788_);fill:#002361;" d="M237.7,54.587
		c0-2.544-0.048-2.953-1.465-3.072l-0.598-0.048c-0.145-0.097-0.097-0.528,0.046-0.601c1.201,0.049,2.017,0.073,3.025,0.073
		c0.96,0,1.776-0.024,2.975-0.073c0.145,0.073,0.193,0.504,0.049,0.601l-0.6,0.048c-1.416,0.119-1.464,0.528-1.464,3.072v8.543
		c0,2.545,0.048,2.881,1.464,3.049l0.6,0.072c0.144,0.096,0.096,0.527-0.049,0.6c-1.199-0.049-2.015-0.073-2.975-0.073
		c-1.008,0-1.733,0.024-2.932,0.073c-0.144-0.073-0.192-0.457-0.048-0.6l0.507-0.072c1.417-0.168,1.465-0.504,1.465-3.049V54.587z"
		/>
	<path style="clip-path:url(#SVGID_00000071531557944731715010000009431726084125829788_);fill:#002361;" d="M258.46,62.699
		c0,0.721,0,3.576,0.073,4.199c-0.048,0.145-0.192,0.264-0.456,0.264c-0.288-0.406-0.984-1.246-3.072-3.623l-5.568-6.336
		c-0.648-0.744-2.281-2.712-2.784-3.238h-0.047c-0.097,0.287-0.122,0.838-0.122,1.558v5.233c0,1.127,0.025,4.248,0.433,4.966
		c0.145,0.266,0.624,0.409,1.224,0.457l0.744,0.073c0.143,0.191,0.119,0.48-0.048,0.599c-1.08-0.048-1.92-0.072-2.808-0.072
		c-1.007,0-1.656,0.024-2.495,0.072c-0.169-0.119-0.193-0.457-0.049-0.599l0.649-0.073c0.551-0.072,0.935-0.216,1.055-0.48
		c0.336-0.863,0.312-3.791,0.312-4.943V53.82c0-0.673-0.024-1.178-0.528-1.728c-0.336-0.336-0.912-0.505-1.488-0.577l-0.408-0.047
		c-0.144-0.144-0.144-0.503,0.049-0.601c1.008,0.072,2.279,0.072,2.711,0.072c0.384,0,0.792-0.023,1.104-0.072
		c0.481,1.225,3.312,4.393,4.103,5.281l2.329,2.615c1.656,1.848,2.831,3.192,3.96,4.344h0.048c0.096-0.119,0.096-0.504,0.096-1.008
		v-5.136c0-1.128-0.024-4.247-0.48-4.968c-0.144-0.216-0.527-0.36-1.487-0.48l-0.408-0.047c-0.169-0.144-0.145-0.529,0.046-0.601
		c1.105,0.049,1.92,0.072,2.833,0.072c1.033,0,1.656-0.023,2.471-0.072c0.193,0.121,0.193,0.457,0.049,0.601l-0.336,0.047
		c-0.768,0.12-1.248,0.313-1.345,0.504c-0.408,0.864-0.36,3.84-0.36,4.944V62.699z"/>
	<path style="clip-path:url(#SVGID_00000071531557944731715010000009431726084125829788_);fill:#002361;" d="M264.764,67.162
		c-2.017,0-3.288-0.623-3.745-0.887c-0.287-0.529-0.6-2.232-0.649-3.359c0.122-0.17,0.482-0.217,0.577-0.072
		c0.36,1.222,1.344,3.576,4.129,3.576c2.015,0,3-1.321,3-2.76c0-1.057-0.217-2.232-1.969-3.361l-2.279-1.489
		c-1.201-0.791-2.593-2.16-2.593-4.127c0-2.28,1.776-4.127,4.897-4.127c0.743,0,1.607,0.144,2.232,0.311
		c0.312,0.098,0.647,0.145,0.838,0.145c0.217,0.575,0.433,1.92,0.433,2.927c-0.097,0.145-0.479,0.216-0.6,0.073
		c-0.312-1.153-0.959-2.713-3.263-2.713c-2.353,0-2.857,1.56-2.857,2.666c0,1.39,1.153,2.398,2.039,2.951l1.921,1.199
		c1.512,0.936,3,2.328,3,4.608C269.875,65.363,267.883,67.162,264.764,67.162"/>
</g>
</svg>
